<svg id="Layer_1" data-name="Layer 1" xmlns="http://www.w3.org/2000/svg" viewBox="0 0 1024 1000.67"><defs><style>.cls-1{fill:#fce18a;}.cls-2{fill:#030202;}</style></defs><title>logo</title><path class="cls-1" d="M243.18,239.31c0-19.38-1.18-39,.19-58.45C251.69,62.19,377.23-25.37,490.73,26.55c15.83,7.24,26.73,7.8,42.68.37,80.4-37.45,173.76-6,221.58,72.58,18,29.59,27.14,61.44,27,96-.06,14.83,0,29.66,0,45.32,14.49-3.7,28.67-7.22,43.35-8.47,107.24-9.16,197.09,72.49,198.16,179.91.32,33-8.22,63.24-26.45,90.62-3.16,4.75-3.2,8.07-.1,12.57,67,97.06,3.8,247-125.89,268.68-30.14,5-59.73,2.11-89.51-5.72-.36,23.44.46,46.34-1.27,69.24-5.81,76.81-69.63,147.74-145.49,160.83-42.07,7.27-81.89,1.61-118.22-22.08-2.81-1.83-4.53-2.51-7.86-.35-74.49,48.31-173,26.1-227.24-44.66-25-32.65-38-69.4-38.44-110.5-.19-17.5,0-35,0-53.37a247,247,0,0,1-48,9c-71.2,5.7-144.28-36.89-174.85-101.4-21.1-44.51-27.32-89.66-10-136.77,4.06-11.08,9-21.79,15.89-31.31,3.8-5.28,3.37-8.71.14-13.87-67.41-107.47,4.06-241.41,115.43-267.29,30.44-7.07,60.91-5.55,91.13,2.11,2.61.67,5.21,1.38,7.85,2C241.17,240.05,241.88,239.64,243.18,239.31Zm-105.38,265c1.2,5.4-3.75,6.72-6.51,9.05-7.49,6.31-14.84,12.75-21.16,20.2-13.69,16.15-23.84,34-24.87,55.79-.11,1.32-.23,2.63-.35,3.94l-.78,4.11c-1,6.14-1.53,12.26.8,18.26-.26,5.59.25,11.06,2.77,16.19,4,16.94,13.38,30.62,25.91,42.37a81,81,0,0,0,43.3,26.41q76.32,18,132.83-37,179.34-174.6,358.88-349c36.72-35.54,54.6-77.68,50.1-128.7-1.92-21.76-8.07-42.2-23.68-58.62-20.15-26-47-37.11-79.49-35.8-26,.07-46.08,12.4-63.82,30.09-7.29,7.27-12.82,16.2-21.3,22.31-3.2-4.71-6.13-9.63-9.63-14.1-22.9-29.2-53.19-42.56-89.75-37.57-49.09,6.71-84,47.18-84.85,97-.7,39.14-.49,78.3-.16,117.45.07,7.71-2.14,9.47-9.66,9.39-44.54-.5-89.14.76-133.63-.84-55.54-2-105.82,48.1-99.07,109.06C87.67,460.34,105.22,487.5,137.8,504.29Zm747.36,8.09c6.38-8.35,15.53-13.66,23-20.87,17.13-16.63,29-35.92,31.65-60.13l.6-3.81c1.39-1.19,1.22-2.7.92-4.25,2.87-28.64-4.68-54-24-75.52C908,336.21,896.12,328,882.85,321.91c-48.12-22.24-106.54-11.43-146.62,27.68Q554.4,527,372.88,704.76c-32.26,31.52-49.37,69.32-48.19,114.79.71,27.26,7,52.65,25.95,73.52,20.05,25.67,45.92,38.17,78.8,34.75,21.8.51,39.22-9.66,55.5-22.68,10.5-8.39,18-19.69,27.69-28.8,19.52,31.33,46.24,51.54,84.32,52.94,56.16,2.06,101.15-41.67,101.78-98.95.44-39.48.31-79,0-118.44-.07-8.1.81-12.15,10.63-11.14,11.69,1.2,23.6.54,35.4.34,37.11-.6,74.26,2.85,111.29-.24,47.56-4,85.78-46.37,85.86-94.07C942,564,921.62,533.3,885.16,512.38Z" transform="translate(0 -11.19)"/><path class="cls-2" d="M542.45,354.84c-1.18-.8-.78-1.26.33-1.57A1.45,1.45,0,0,1,542.45,354.84Z" transform="translate(0 -11.19)"/></svg>